name Walk4.mot
datacolumns 19
datarows 15
range 1.37900000 1.39300000
endheader

                time	   L_ground_force_vx	   L_ground_force_vy	   L_ground_force_vz	   L_ground_force_px	   L_ground_force_py	   L_ground_force_pz	   R_ground_force_vx	   R_ground_force_vy	   R_ground_force_vz	   R_ground_force_px	   R_ground_force_py	   R_ground_force_pz	   L_ground_torque_x	   L_ground_torque_y	   L_ground_torque_z	   R_ground_torque_x	   R_ground_torque_y	   R_ground_torque_z	
          1.37900000	         45.05908655	        504.64177668	         17.00554947	         -0.08634925	          0.00000000	         -0.00786032	          0.00000000	          0.00000000	          0.00000000	          0.00000000	          0.00000000	          0.00000000	          0.00000000	          0.60171731	          0.00000000	          0.00000000	          0.00000000	          0.00000000	
          1.38000000	         45.81940699	        507.02017806	         17.20555929	         -0.08632218	          0.00000000	         -0.00800804	          0.00000000	          0.00000000	          0.00000000	          0.00000000	          0.00000000	          0.00000000	          0.00000000	          0.61080231	          0.00000000	          0.00000000	          0.00000000	          0.00000000	
          1.38100000	         46.57087728	        509.39112963	         17.47112634	         -0.08632145	          0.00000000	         -0.00804013	          0.00000000	          0.00000000	          0.00000000	          0.00000000	          0.00000000	          0.00000000	          0.00000000	          0.61135747	          0.00000000	          0.00000000	          0.00000000	          0.00000000	
          1.38200000	         47.35194795	        511.77459844	         17.79346109	         -0.08634234	          0.00000000	         -0.00793312	          0.00000000	          0.00000000	          0.00000000	          0.00000000	          0.00000000	          0.00000000	          0.00000000	          0.59935393	          0.00000000	          0.00000000	          0.00000000	          0.00000000	
          1.38300000	         48.19663923	        514.16586074	         18.13226882	         -0.08635434	          0.00000000	         -0.00773343	          0.00000000	          0.00000000	          0.00000000	          0.00000000	          0.00000000	          0.00000000	          0.00000000	          0.57884056	          0.00000000	          0.00000000	          0.00000000	          0.00000000	
          1.38400000	         49.10848662	        516.55739510	         18.43466584	         -0.08631583	          0.00000000	         -0.00754041	          0.00000000	          0.00000000	          0.00000000	          0.00000000	          0.00000000	          0.00000000	          0.00000000	          0.56352921	          0.00000000	          0.00000000	          0.00000000	          0.00000000	
          1.38500000	         50.04907537	        518.96574765	         18.66934432	         -0.08621369	          0.00000000	         -0.00745689	          0.00000000	          0.00000000	          0.00000000	          0.00000000	          0.00000000	          0.00000000	          0.00000000	          0.57157329	          0.00000000	          0.00000000	          0.00000000	          0.00000000	
          1.38600000	         50.97464595	        521.41352541	         18.84731542	         -0.08607635	          0.00000000	         -0.00752072	          0.00000000	          0.00000000	          0.00000000	          0.00000000	          0.00000000	          0.00000000	          0.00000000	          0.60880077	          0.00000000	          0.00000000	          0.00000000	          0.00000000	
          1.38700000	         51.87535526	        523.89133248	         18.99973260	         -0.08594501	          0.00000000	         -0.00769427	          0.00000000	          0.00000000	          0.00000000	          0.00000000	          0.00000000	          0.00000000	          0.00000000	          0.66422752	          0.00000000	          0.00000000	          0.00000000	          0.00000000	
          1.38800000	         52.75707310	        526.35217673	         19.14913895	         -0.08584834	          0.00000000	         -0.00791685	          0.00000000	          0.00000000	          0.00000000	          0.00000000	          0.00000000	          0.00000000	          0.00000000	          0.72367645	          0.00000000	          0.00000000	          0.00000000	          0.00000000	
          1.38900000	         53.61303066	        528.75269829	         19.32006783	         -0.08580095	          0.00000000	         -0.00813571	          0.00000000	          0.00000000	          0.00000000	          0.00000000	          0.00000000	          0.00000000	          0.00000000	          0.77535440	          0.00000000	          0.00000000	          0.00000000	          0.00000000	
          1.39000000	         54.44118830	        531.09358432	         19.55672679	         -0.08580843	          0.00000000	         -0.00830313	          0.00000000	          0.00000000	          0.00000000	          0.00000000	          0.00000000	          0.00000000	          0.00000000	          0.80812134	          0.00000000	          0.00000000	          0.00000000	          0.00000000	
          1.39100000	         55.27026290	        533.40486459	         19.89299018	         -0.08585798	          0.00000000	         -0.00838702	          0.00000000	          0.00000000	          0.00000000	          0.00000000	          0.00000000	          0.00000000	          0.00000000	          0.81604094	          0.00000000	          0.00000000	          0.00000000	          0.00000000	
          1.39200000	         56.14805094	        535.68684826	         20.30408573	         -0.08590106	          0.00000000	         -0.00838589	          0.00000000	          0.00000000	          0.00000000	          0.00000000	          0.00000000	          0.00000000	          0.00000000	          0.80028249	          0.00000000	          0.00000000	          0.00000000	          0.00000000	
          1.39300000	         57.10977309	        537.89201761	         20.71450924	         -0.08587127	          0.00000000	         -0.00832383	          0.00000000	          0.00000000	          0.00000000	          0.00000000	          0.00000000	          0.00000000	          0.00000000	          0.76659294	          0.00000000	          0.00000000	          0.00000000	          0.00000000	
